<svg xmlns="http://www.w3.org/2000/svg" viewBox="0 0 500 500"><g fill="#ebebeb"><path d="M438.37 262.58c-5.28 0-137-.92-174.15-.92-2.6 0 .69-4.5 2.12-4.82 4.57-1 9.34-1 14-1.53a46 46 0 0 0 13.31-3.31c3.66-1.55 7.32-3.33 11.28-3.95 7.66-1.2 14.38 2.95 21.57 4.78a16.31 16.31 0 0 0 13.07-1.83c3.32-2 6.34-4.39 9.81-6.15a53.9 53.9 0 0 1 43-2 50.33 50.33 0 0 1 9.41 4.82c3.51 2.3 6.54 5.25 10.06 7.52 7.8 5.05 17.44 3.41 25.95 6.3.5.21 1.03 1.09.57 1.09zM179.93 110.62c-7 0-124.37.77-131.75.54-.53 0-.82-.8-.29-1.06 4.65-2.3 9.93-1.84 14.76-3.47 2.84-1 4.59-2.82 6.56-4.95a13.8 13.8 0 0 1 6.11-4 12.93 12.93 0 0 1 6.65-.2c2.39.56 4.45 1.93 6.73 2.79 5.64 2.13 11.12.1 15.14-4.07 3.33-3.44 6.59-6.69 11.1-8.54a14.78 14.78 0 0 1 11.77-.16c4.3 1.95 7.26 5.87 11.3 8.23 4.8 2.81 10.53 2.14 15.83 3s9.36 5.3 14 7.87a9.88 9.88 0 0 0 5.07 1.57c1 0 2.05-.31 3.08-.43 1.6-.2 3.12-.16 4.19 1.18.26.32.21 1.7-.25 1.7zM424.18 137.91c-5.1 0-90.81.57-96.2.39-.38 0-.59-.58-.21-.77 3.4-1.68 7.25-1.34 10.78-2.53 2.08-.7 3.35-2.06 4.79-3.61a10 10 0 0 1 4.46-2.92 9.43 9.43 0 0 1 4.86-.15 42 42 0 0 1 4.91 2c4.11 1.55 8.12.08 11.05-3 2.43-2.51 4.81-4.88 8.11-6.23a10.74 10.74 0 0 1 8.59-.12c3.14 1.42 5.3 4.29 8.25 6 3.5 2 7.69 1.56 11.55 2.18s6.88 3.95 10.23 5.85a7.18 7.18 0 0 0 3.7 1.14 21.75 21.75 0 0 0 2.25-.32 3.08 3.08 0 0 1 3.06.87c.19.22.15 1.22-.18 1.22zM169.11 203.82c-5.1 0-90.81.56-96.2.39-.38 0-.59-.58-.21-.77 3.4-1.68 7.25-1.34 10.78-2.53 2.08-.7 3.35-2.06 4.79-3.62a10 10 0 0 1 4.46-2.91 9.43 9.43 0 0 1 4.86-.15 40.34 40.34 0 0 1 4.91 2c4.12 1.55 8.12.07 11.06-3 2.42-2.51 4.8-4.88 8.1-6.24a10.78 10.78 0 0 1 8.59-.12c3.14 1.43 5.3 4.29 8.25 6 3.5 2 7.69 1.56 11.55 2.18s6.84 3.87 10.23 5.74A7.22 7.22 0 0 0 164 202c.76 0 1.5-.23 2.25-.32a3.09 3.09 0 0 1 3.06.86c.17.27.13 1.28-.2 1.28zM258.32 168.85c-.1.28-135.09 0-133.39 0 .78 0-1.18-1.17-.42-1.54 4.4-2.18 9.21-2.24 14-2.68a21.52 21.52 0 0 0 8.17-2c2.55-1.33 4.13-3.64 5.94-5.78a25.37 25.37 0 0 1 23-8.73c9.6 1.5 17.17 8.81 26.78 10.16 5.78.81 11.24-1.43 16.89-2.22a20.68 20.68 0 0 1 12.71 2.33c3.05 1.51 5.86 2.78 9.3 3 2.65.19 5.3-.11 7.95-.14a17.8 17.8 0 0 1 11.69 4.67c.43.4 1.79 2.93-2.62 2.93zM359.19 76.34a40.32 40.32 0 0 1 12.66 0 40.32 40.32 0 0 1-12.66 0zM391.31 56.82a87.58 87.58 0 0 1-.5-9.83 83.15 83.15 0 0 1 .5-9.84 83.15 83.15 0 0 1 .5 9.84 87.58 87.58 0 0 1-.5 9.83zM381.57 59.44a36.28 36.28 0 0 1-3.64-5.29 37.12 37.12 0 0 1-2.77-5.79 36.28 36.28 0 0 1 3.64 5.29 37.55 37.55 0 0 1 2.77 5.79zM374.44 66.59a87 87 0 0 1-8.76-4.48 85.11 85.11 0 0 1-8.27-5.35 96.11 96.11 0 0 1 17 9.83zM410.84 76.28a35.55 35.55 0 0 1 6.33-.5 34.64 34.64 0 0 1 6.33.5 35.55 35.55 0 0 1-6.33.5 36.51 36.51 0 0 1-6.33-.5zM408.21 66.54a97 97 0 0 1 17-9.84 83.27 83.27 0 0 1-8.21 5.35 85 85 0 0 1-8.79 4.49zM401.06 59.41a41 41 0 0 1 6.38-11 35.94 35.94 0 0 1-2.75 5.77 35.6 35.6 0 0 1-3.63 5.23zM391.34 95.85a83 83 0 0 1 .5 9.83 83 83 0 0 1-.5 9.83 96.88 96.88 0 0 1 0-19.66zM401.09 93.22a37.11 37.11 0 0 1 3.63 5.3 36.69 36.69 0 0 1 2.77 5.79 40.55 40.55 0 0 1-6.4-11.09zM408.21 86.07a98.77 98.77 0 0 1 17 9.83 83.13 83.13 0 0 1-8.77-4.48 85 85 0 0 1-8.23-5.35zM374.44 86.13a85 85 0 0 1-8.26 5.35 85.07 85.07 0 0 1-8.77 4.52 85.11 85.11 0 0 1 8.27-5.35 87 87 0 0 1 8.76-4.52zM381.59 93.25a41.22 41.22 0 0 1-6.38 11.06 35.26 35.26 0 0 1 2.79-5.78 35.81 35.81 0 0 1 3.59-5.28z"/><circle cx="391.33" cy="76.33" r="15.61"/></g><path fill="#263238" d="M34.95 470.99l53.76-.24 53.77-.09 107.52-.17 107.52.17 53.77.09 53.76.24-53.76.25-53.77.09-107.52.16-107.52-.17-53.77-.08-53.76-.25z"/><path fill="orange" d="M143.74 273.9s-.5 46.09 14.81 95.43c8.82 28.45 27.34 58 42.82 80.4h-25.75s-22.21-55-27.13-79.77c-11-55.14-6.68-96.85-6.68-96.85z"/><path d="M143.74 273.9s-.5 46.09 14.81 95.43c8.82 28.45 27.34 58 42.82 80.4h-25.75s-22.21-55-27.13-79.77c-11-55.14-6.68-96.85-6.68-96.85z" opacity=".3"/><path fill="orange" d="M168.92 432.55l.22.6q1.88 0 3.75-.06c2.14 0 4.28-.11 6.43-.24-2.15-.13-4.29-.19-6.43-.24-1.32-.03-2.65-.05-3.97-.06zM171.18 423.07c1.07.06 2.14.1 3.22.15l3.21.08c2.14.07 4.29.07 6.43.08h.18c-.13-.21-.26-.42-.38-.63-2.08 0-4.15 0-6.23.08l-3.21.08c-1.08.09-2.15.09-3.22.16zM174.51 418.9c1.07.07 2.15.1 3.22.15l3.21.09h.75l-.3-.51h-.45l-3.21.09c-1.07.08-2.15.11-3.22.18zM155.45 394.87c0 .13.08.25.13.37 1.42 0 2.83-.09 4.25-.18-1.46-.06-2.92-.14-4.38-.19zM153.63 389.16c.05.19.12.37.18.56h2.1c2.14-.05 4.28-.11 6.42-.24-2.14-.13-4.28-.19-6.42-.24zM147.24 363.34a2 2 0 0 0 .06.35c1.29 0 2.6-.09 3.89-.17-1.32-.08-2.63-.13-3.95-.18zM144.53 338.1l3.21.15 2.95.08-.09-.46-2.86.08c-1.07.05-2.14.05-3.21.15zM141.56 315.12v.2l1.91-.1zM147 335c1 .07 2.06.1 3.09.15l-.06-.3c-1.03.05-2.03.08-3.03.15z"/><path fill="#455a64" d="M176.05 244.4l-7.7-1.86 6.84 4.73a30.8 30.8 0 0 1-5.06 9.18l-7.7-3.45 5.44 6a32.74 32.74 0 0 1-2.79 2.53l-4.53-2.26 2.54 3.76a42.92 42.92 0 0 1-6.32 3.69l-3.67-4.08 2.09 4.8a66.86 66.86 0 0 1-13.49 4.15l31.83-55.28a51.14 51.14 0 0 1 3.28 13l-3.37-.05 3.56 1.86c.12 1.42.18 2.89.16 4.41l-8-.83 7.79 4.51a37.72 37.72 0 0 1-.9 5.19z"/><path fill="#37474f" d="M187.63 272.78l-2.91-3.5 1.52 4.8a24.35 24.35 0 0 1-5.17 3.44l-3.39-6.44.27 7.72a27.58 27.58 0 0 1-3.53.89l-2.23-4.64-.2 5a33.47 33.47 0 0 1-6.31-.06l-1.21-8.08-2.1 7.61c-1.06-.2-2.15-.44-3.28-.73v-5.31l-2.8 4.5a77.14 77.14 0 0 1-14.36-6.41l52-8.69a27.24 27.24 0 0 1-6.3 9.9zM141.92 271.63a90.7 90.7 0 0 1-11.83-15.45l5.67-3.37-6.94 1.19a60.51 60.51 0 0 1-2.74-5.64l5.78-3.82-7 .75a48.87 48.87 0 0 1-1.45-4.73l10-3.63-11.08-1.72a43.62 43.62 0 0 1-.19-10.36l13.08-2.95-12.29-2c.18-.88.4-1.75.64-2.59l7.07.27-6.34-2.64a47.5 47.5 0 0 1 2.5-6L137 211l-8.47-5.18a53.41 53.41 0 0 1 11.58-14z"/><path fill="#455a64" d="M123.27 264.46l2.16-5.62-4.51 4.38c-.87-.47-1.75-1-2.62-1.49l2.35-3.9-3.72 3.06c-1.4-.88-2.79-1.82-4.14-2.81l3.6-4.67-5.89 2.89a45.69 45.69 0 0 1-6.76-6.72l7.29-6-9.18 3.42a31.27 31.27 0 0 1-3.51-6.86l7.2-4.76-8.06 2a28.5 28.5 0 0 1-.72-4.08l10.81-4.8-10.85-.65a34.3 34.3 0 0 1 .93-5.51l7.77-.48-7-2.13a53.19 53.19 0 0 1 5.49-11.6s10.93 43.08 38 63.48a97.83 97.83 0 0 1-18.64-7.15z"/><path fill="#37474f" d="M127.77 276.66l-1.29-2.66.47 2.8c-.78.1-1.55.16-2.29.19l-.9-3.57-1 3.59a26.69 26.69 0 0 1-3.17-.28l.5-5.91-2.86 5.41a23.25 23.25 0 0 1-6.17-2.61l1-4.51-2.37 3.59a25 25 0 0 1-2.2-1.73l2.91-4.84-4.47 3.38a33.1 33.1 0 0 1-3.28-3.88l2.6-2.92-3.25 1.93c-.35-.52-.68-1-1-1.52l1.76-1.61-2.33.64a38.4 38.4 0 0 1-3.43-7.54c14.56 14.23 45 17 45 17a43.94 43.94 0 0 1-14.23 5.05z"/><path fill="#455a64" d="M167.77 293.17l-.78-2.48-.31 2.59a21.06 21.06 0 0 1-3 0L164 289l-1.71 4.14a19.38 19.38 0 0 1-4.37-1.15l.65-4.22-2.7 3.3a21.08 21.08 0 0 1-2.64-1.64l1.76-3.22-2.79 2.43a22.65 22.65 0 0 1-1.89-1.7l2.45-3.88-4.34 1.81c-.57-.7-1.14-1.44-1.7-2.24l2.07-1.78-2.71.82a51.06 51.06 0 0 1-5-10.2s18.87 16.2 34.9 19.26a23.37 23.37 0 0 1-8.21 2.44zM133.89 288.74l-2.8-2.76 1.65 3.92a17.32 17.32 0 0 1-2.66 2l-2.36-2.21 1.28 2.83a13.86 13.86 0 0 1-1.42.65L125 289.3l.74 4.52a17.23 17.23 0 0 1-4.72.53l-1.43-3.28-.17 3.16c-.73-.08-1.43-.2-2.1-.34l-.51-3.2-.7 2.9a24.39 24.39 0 0 1-6.4-2.72c17.08-2.3 31.78-17.59 31.78-17.59-1.97 7.31-4.64 12.23-7.6 15.46z"/><path fill="orange" d="M149.24 283.71a6.39 6.39 0 1 1-4.93-7.58 6.39 6.39 0 0 1 4.93 7.58z"/><path d="M149.24 283.71a6.39 6.39 0 1 1-4.93-7.58 6.39 6.39 0 0 1 4.93 7.58z" opacity=".4"/><path fill="orange" d="M145 277a6.4 6.4 0 1 1-4.94-7.58A6.41 6.41 0 0 1 145 277z"/><path d="M145 277a6.4 6.4 0 1 1-4.94-7.58A6.41 6.41 0 0 1 145 277z" opacity=".3"/><path fill="orange" d="M151.51 277.21a6.39 6.39 0 1 1-4.93-7.58 6.39 6.39 0 0 1 4.93 7.58z"/><path d="M151.51 277.21a6.39 6.39 0 1 1-4.93-7.58 6.39 6.39 0 0 1 4.93 7.58z" opacity=".2"/><path fill="orange" d="M87.18 319.2a205.77 205.77 0 0 0 14.09 70.8c8.4 21.13 62.1 43 76.84 59.69h-24.52s-57.22-40.85-61.9-59.21c-10.42-40.94-6.36-71.9-6.36-71.9z"/><path d="M87.18 319.2a205.77 205.77 0 0 0 14.09 70.8c8.4 21.13 62.1 43 76.84 59.69h-24.52s-57.22-40.85-61.9-59.21c-10.42-40.94-6.36-71.9-6.36-71.9z" opacity=".3"/><path fill="orange" d="M136.71 437l.56.44h2.9c2 0 4.09-.09 6.12-.18-2-.1-4.08-.14-6.12-.18zM141.2 429.93c1 .06 2 .08 3.05.13l3.06.05c1.31 0 2.63 0 3.95.05-.25-.15-.49-.29-.73-.45-1.07 0-2.14 0-3.22.05l-3.06.06c-1.02.04-2.04.06-3.05.11zM148.07 431.5l3.06.12 2.57.06-.53-.34-2 .05zM104.77 409a3.07 3.07 0 0 0 .25.26c1.22 0 2.43-.07 3.65-.12-1.29-.06-2.6-.09-3.9-.14zM100.85 404.78c.11.12.23.26.33.39h.92c2 0 4.07-.08 6.11-.18-2-.09-4.07-.13-6.11-.17zM90.5 385.6l.06.26c1.23 0 2.47-.07 3.71-.13-1.27-.05-2.51-.1-3.77-.13zM87.93 366.86c1 .05 2 .07 3 .11l2.81.06-.09-.34-2.72.06c-.93.03-1.99.06-3 .11zM85.1 349.81a.61.61 0 0 1 0 .14l1.83-.07c-.6-.03-1.22-.06-1.83-.07zM90.26 364.56c1 .05 2 .08 2.93.11a1.42 1.42 0 0 0 0-.22c-1.01.04-1.97.06-2.93.11z"/><path fill="#455a64" d="M105.14 290.75l-6.26.05 6.15 2.32a24.14 24.14 0 0 1-2.11 8L96.35 300l5.32 3.54A23.31 23.31 0 0 1 100 306l-3.9-.86 2.67 2.4a34.65 34.65 0 0 1-4.14 4l-3.59-2.42 2.52 3.27a52.62 52.62 0 0 1-9.56 5.8l13.8-48.51a40.42 40.42 0 0 1 5 9.32l-2.6.6 3.09.75a34.66 34.66 0 0 1 1 3.35l-6.28.9 6.83 2a28.69 28.69 0 0 1 .3 4.15z"/><path fill="#37474f" d="M119.47 310.29l-2.9-2.13 2.09 3.4a19.48 19.48 0 0 1-3.31 3.63l-3.84-4.29 1.7 5.87a19.65 19.65 0 0 1-2.54 1.35l-2.61-3.12.81 3.86A26.12 26.12 0 0 1 104 320l-2.48-6-.15 6.23c-.85.06-1.74.09-2.66.08l-1-4.07-1.28 4a61.09 61.09 0 0 1-12.25-2.16l38.22-16.64a21.51 21.51 0 0 1-2.93 8.85zM84.2 318.18a70.54 70.54 0 0 1-12-9.58l3.7-3.67-5.09 2.23a46.68 46.68 0 0 1-3.19-3.81l3.7-4-5.21 1.91c-.75-1.12-1.42-2.24-2-3.35l7-4.71-8.83.81a35.11 35.11 0 0 1-2.14-7.91l9.47-4.77-9.82.82v-2.11l5.47-1.15-5.43-.89a39.9 39.9 0 0 1 .76-5.09l8.17-.3-7.5-2.34a42.2 42.2 0 0 1 6.2-12.95z"/><path fill="#455a64" d="M68.52 316.27l.57-4.73-2.62 4.23c-.76-.2-1.52-.41-2.29-.65l1-3.44-2.18 3.06c-1.24-.4-2.48-.85-3.71-1.36l1.86-4.27-4 3.35a36.34 36.34 0 0 1-6.47-3.85l4.43-6-6.37 4.39a24.06 24.06 0 0 1-4-4.58l4.61-5-5.81 3.06a23.15 23.15 0 0 1-1.33-3l7.37-5.75-8.44 1.58a25.93 25.93 0 0 1-.35-4.41l5.86-1.9-5.8-.29a41.73 41.73 0 0 1 2-9.95s16.65 30.94 41.36 41.38a77.16 77.16 0 0 1-15.69-1.87z"/><path fill="#37474f" d="M74.31 324.76L72.8 323l.9 2.06c-.58.22-1.16.42-1.72.59L70.6 323l-.06 3a18.72 18.72 0 0 1-2.48.39l-.75-4.63-1.15 4.71a18.72 18.72 0 0 1-5.24-.82l-.13-3.65-1.13 3.21a21.7 21.7 0 0 1-2-.9l1.3-4.27-2.78 3.45a26.14 26.14 0 0 1-3.26-2.35l1.43-2.74-2.14 2.13-1-1 1-1.57-1.66.94a30.74 30.74 0 0 1-4-5.14c13.89 8.12 37.77 4.37 37.77 4.37a34.64 34.64 0 0 1-10.01 6.63z"/><path fill="#455a64" d="M108.16 329.75l-1.08-1.75.26 2.05a16.53 16.53 0 0 1-2.28.56l-.63-3.34-.52 3.51a15.86 15.86 0 0 1-3.57 0l-.31-3.37-1.44 3.05a16.63 16.63 0 0 1-2.34-.75l.73-2.81-1.67 2.4a18 18 0 0 1-1.78-.94l1.14-3.44-3 2.21c-.58-.42-1.15-.88-1.73-1.39l1.24-1.76-1.92 1.15a40.26 40.26 0 0 1-5.77-6.87s17.58 8.8 30.46 8.07a18.5 18.5 0 0 1-5.79 3.42zM81.32 332.85l-2.68-1.58 2 2.69A13 13 0 0 1 79 336l-2.23-1.25 1.52 1.93a11.56 11.56 0 0 1-1 .77L74.58 335l1.42 3.32a13.65 13.65 0 0 1-3.51 1.31l-1.74-2.24.49 2.45a16.81 16.81 0 0 1-1.69.15l-1-2.36v2.36a19.1 19.1 0 0 1-5.43-.86c12.66-5 21-19.59 21-19.59-.05 5.98-1.12 10.27-2.8 13.31z"/><path fill="orange" d="M92.13 326.05a5.06 5.06 0 1 1-5.24-4.87 5.07 5.07 0 0 1 5.24 4.87z"/><path d="M92.13 326.05a5.06 5.06 0 1 1-5.24-4.87 5.07 5.07 0 0 1 5.24 4.87z" opacity=".4"/><path fill="orange" d="M87.6 321.72a5.06 5.06 0 1 1-5.24-4.87 5.06 5.06 0 0 1 5.24 4.87z"/><path d="M87.6 321.72a5.06 5.06 0 1 1-5.24-4.87 5.06 5.06 0 0 1 5.24 4.87z" opacity=".3"/><path fill="orange" d="M92.62 320.62a5.06 5.06 0 1 1-5.24-4.87 5 5 0 0 1 5.24 4.87z"/><path d="M92.62 320.62a5.06 5.06 0 1 1-5.24-4.87 5 5 0 0 1 5.24 4.87z" opacity=".2"/><path fill="orange" d="M412.82 319.2a205.77 205.77 0 0 1-14.09 70.8c-8.4 21.13-62.1 43-76.84 59.69h24.52s57.22-40.85 61.9-59.21c10.42-40.94 6.36-71.9 6.36-71.9z"/><path d="M412.82 319.2a205.77 205.77 0 0 1-14.09 70.8c-8.4 21.13-62.1 43-76.84 59.69h24.52s57.22-40.85 61.9-59.21c10.42-40.94 6.36-71.9 6.36-71.9z" opacity=".3"/><path fill="orange" d="M363.29 437l-.55.44h-2.91c-2 0-4.09-.09-6.12-.18 2-.1 4.08-.14 6.12-.18zM358.8 429.93c-1 .06-2 .08-3.05.13l-3.06.05c-1.31 0-2.63 0-3.95.05.25-.15.49-.29.73-.45 1.07 0 2.14 0 3.22.05l3.06.06c1.02.04 2.04.06 3.05.11zM351.93 431.5l-3.06.12-2.57.06.53-.34 2 .05zM395.23 409a3.07 3.07 0 0 1-.25.26c-1.22 0-2.43-.07-3.65-.12 1.29-.06 2.6-.09 3.9-.14zM399.15 404.78c-.11.12-.23.26-.33.39h-.92c-2 0-4.07-.08-6.11-.18 2-.09 4.07-.13 6.11-.17zM409.5 385.6l-.06.26c-1.23 0-2.47-.07-3.71-.13 1.27-.05 2.51-.1 3.77-.13zM412.07 366.86c-1 .05-2 .07-3.05.11l-2.81.06.09-.34 2.72.06c.98.03 2.04.06 3.05.11zM414.9 349.81a.61.61 0 0 0 0 .14l-1.83-.07c.6-.03 1.22-.06 1.83-.07zM409.74 364.56c-1 .05-2 .08-2.93.11a1.42 1.42 0 0 1 .05-.22c.96.04 1.92.06 2.88.11z"/><path fill="#455a64" d="M394.86 290.75l6.26.05-6.12 2.32a24.14 24.14 0 0 0 2.11 8l6.57-1.16-5.32 3.54A24.93 24.93 0 0 0 400 306l3.9-.86-2.67 2.4a34.65 34.65 0 0 0 4.14 4l3.59-2.42-2.52 3.27a52.62 52.62 0 0 0 9.55 5.78l-13.8-48.51a40.42 40.42 0 0 0-5 9.32l2.6.6-3.09.75a34.66 34.66 0 0 0-1 3.35l6.28.9-6.83 2a28.69 28.69 0 0 0-.29 4.17z"/><path fill="#37474f" d="M380.53 310.29l2.9-2.13-2.09 3.4a19.48 19.48 0 0 0 3.31 3.63l3.84-4.29-1.7 5.87a19.65 19.65 0 0 0 2.54 1.35l2.61-3.13-.81 3.86A26.12 26.12 0 0 0 396 320l2.48-6 .15 6.23c.85.06 1.74.09 2.66.08l1-4.07 1.28 4a61.09 61.09 0 0 0 12.25-2.16l-38.22-16.64a21.51 21.51 0 0 0 2.93 8.85zM415.8 318.18a70.54 70.54 0 0 0 12.05-9.58l-3.7-3.67 5.09 2.23a46.68 46.68 0 0 0 3.19-3.81l-3.7-4 5.21 1.91c.75-1.12 1.42-2.24 2-3.35l-7-4.71 8.83.81a35.11 35.11 0 0 0 2.14-7.91l-9.47-4.77 9.82.82v-2.11l-5.47-1.15 5.37-.81a39.9 39.9 0 0 0-.76-5.09l-8.17-.3 7.5-2.34a42.2 42.2 0 0 0-6.2-12.95z"/><path fill="#455a64" d="M431.48 316.27l-.57-4.73 2.62 4.23c.76-.2 1.52-.41 2.29-.65l-1.05-3.44 2.27 3.06c1.24-.4 2.48-.85 3.71-1.36l-1.86-4.27 4 3.35a36.34 36.34 0 0 0 6.47-3.85l-4.43-6 6.37 4.42a24.06 24.06 0 0 0 4-4.58l-4.61-5 5.81 3.06a23.15 23.15 0 0 0 1.33-3l-7.37-5.75 8.44 1.58a25.93 25.93 0 0 0 .35-4.41l-5.9-1.93 5.8-.29a41.73 41.73 0 0 0-2-9.95s-16.65 30.94-41.36 41.38a77.16 77.16 0 0 0 15.69-1.87z"/><path fill="#37474f" d="M425.69 324.76l1.51-1.76-.9 2.06c.58.22 1.16.42 1.72.59l1.38-2.65.06 2.94a18.72 18.72 0 0 0 2.48.39l.75-4.63 1.15 4.71a18.72 18.72 0 0 0 5.24-.82l.13-3.65 1.13 3.21a21.7 21.7 0 0 0 2-.9l-1.3-4.27 2.78 3.45a26.14 26.14 0 0 0 3.26-2.35l-1.43-2.74 2.14 2.13 1-1-1-1.57 1.66.94a30.74 30.74 0 0 0 4-5.14c-13.89 8.12-37.77 4.37-37.77 4.37a34.64 34.64 0 0 0 10.01 6.69z"/><path fill="#455a64" d="M391.84 329.75l1.08-1.76-.26 2.05a16.53 16.53 0 0 0 2.28.56l.63-3.34.52 3.51a15.86 15.86 0 0 0 3.57 0l.31-3.37 1.44 3.05a16.63 16.63 0 0 0 2.34-.75l-.73-2.81 1.67 2.4a18 18 0 0 0 1.78-.94l-1.14-3.44 3 2.21c.58-.42 1.15-.88 1.73-1.39l-1.24-1.76 1.92 1.15a40.26 40.26 0 0 0 5.77-6.87s-17.6 8.75-30.51 8.03a18.5 18.5 0 0 0 5.84 3.47zM418.68 332.85l2.68-1.58-2 2.69A13 13 0 0 0 421 336l2.23-1.25-1.52 1.93a11.56 11.56 0 0 0 1 .77l2.76-2.49-1.47 3.36a13.65 13.65 0 0 0 3.51 1.31l1.74-2.24-.49 2.45a16.81 16.81 0 0 0 1.69.15l1-2.36v2.36a19.1 19.1 0 0 0 5.43-.86c-12.66-5-21-19.59-21-19.59.05 5.98 1.12 10.27 2.8 13.31z"/><path fill="orange" d="M407.87 326.05a5.06 5.06 0 1 0 5.24-4.87 5.07 5.07 0 0 0-5.24 4.87z"/><path d="M407.87 326.05a5.06 5.06 0 1 0 5.24-4.87 5.07 5.07 0 0 0-5.24 4.87z" opacity=".4"/><path fill="orange" d="M412.4 321.72a5.06 5.06 0 1 0 5.24-4.87 5.06 5.06 0 0 0-5.24 4.87z"/><path d="M412.4 321.72a5.06 5.06 0 1 0 5.24-4.87 5.06 5.06 0 0 0-5.24 4.87z" opacity=".3"/><path fill="orange" d="M407.38 320.62a5.06 5.06 0 1 0 5.24-4.87 5 5 0 0 0-5.24 4.87z"/><path d="M407.38 320.62a5.06 5.06 0 1 0 5.24-4.87 5 5 0 0 0-5.24 4.87z" opacity=".2"/><g><g fill="#ebebeb" opacity=".6"><path d="M233.56 73.83L52.12 112.72l162.82-48.05 18.62 9.16zM208.24 85.49c-9.65 2.45-19.36 4.61-29.08 6.66-4.86 1-9.73 2-14.6 3L149.93 98l-14.66 2.67c-4.9.84-9.79 1.73-14.7 2.51-9.8 1.62-19.63 3.14-29.51 4.36 9.65-2.45 19.35-4.61 29.08-6.66 4.86-1.05 9.73-2 14.6-3L149.37 95 164 92.37c4.89-.84 9.78-1.73 14.69-2.51 9.84-1.62 19.67-3.14 29.55-4.37zM139.52 82.38q-9.11 3.41-18.34 6.46c-6.14 2.06-12.32 4-18.5 5.93s-12.39 3.76-18.63 5.51-12.49 3.44-18.8 5q9.12-3.42 18.34-6.47c6.14-2.06 12.32-4 18.5-5.93s12.4-3.75 18.63-5.51 12.5-3.45 18.8-4.99z"/></g><path fill="orange" d="M238.14 75.26c-.35-.4-5.21-3.8-5.57-4.05l.83-.14s4.44 3.77 4.74 4.19z"/><path fill="#fff" d="M238.14 75.26c-.35-.4-5.21-3.8-5.57-4.05l.83-.14s4.44 3.77 4.74 4.19z" opacity=".5"/><path fill="orange" d="M238.16 75.29c0 .09-.37.16-.74.21a3 3 0 0 1-1.05 0c-.1-.07-3.61-1.82-5.76-2.9h-.08l-.3-.15-.93-.45-.34-.17 3.61-.62 3.3 2.33.14.11.4.28a19.63 19.63 0 0 1 1.73 1.33z"/><path d="M238.16 75.29c0 .09-.37.16-.74.21a3 3 0 0 1-1.05 0c-.1-.07-3.7-1.87-5.84-2.94.35.17 5 2.39 5.9 1.33a19.63 19.63 0 0 1 1.73 1.33z" opacity=".1"/><path fill="orange" d="M285.71 79.25c0 .49-2.66.64-3 .54s-29.35-11.51-29.35-11.51L264 64.06l.31.22.13.09c2 1.36 7.83 5.43 12.95 9l.31.22.4.28c3.54 2.48 6.62 4.64 7.61 5.38z"/><path fill="orange" d="M285.71 79.25c-2.59-1.93-19.5-13.65-21.72-15.19l1.35-.53s19.7 15 20.3 15.58a.21.21 0 0 1 .07.14z"/><path fill="#fff" d="M285.71 79.25c-2.59-1.93-19.5-13.65-21.72-15.19l1.35-.53s19.7 15 20.3 15.58a.21.21 0 0 1 .07.14z" opacity=".5"/><g opacity=".5"><path d="M285.71 79.25c0 .49-2.66.64-3 .54s-29.35-11.51-29.35-11.51L264 64.06s-2.63 3 3.62 7.65c4.26 3.16 8.8 3.82 10.48 2.16 3.54 2.48 6.62 4.64 7.61 5.38z" opacity=".1"/></g><path fill="orange" d="M261.57 72c-.83.4-1.72.71-1.79-.11 0-.34.24-.71 1.56-1.34.31-.15 1.07-.48 1.3.2s-.76 1.12-1.07 1.25z"/><path d="M261.57 72c-.83.4-1.72.71-1.79-.11 0-.34.24-.71 1.56-1.34.31-.15 1.07-.48 1.3.2s-.76 1.12-1.07 1.25z" opacity=".1"/><path fill="orange" d="M268.28 74.77c-.82.4-1.71.71-1.78-.11 0-.34.24-.71 1.56-1.34.31-.15 1.07-.48 1.29.2s-.76 1.1-1.07 1.25z"/><path d="M268.28 74.77c-.82.4-1.71.71-1.78-.11 0-.34.24-.71 1.56-1.34.31-.15 1.07-.48 1.29.2s-.76 1.1-1.07 1.25z" opacity=".1"/><path fill="orange" d="M275 77.52c-.82.4-1.72.71-1.78-.12 0-.33.24-.7 1.56-1.33.31-.15 1.07-.49 1.29.2s-.76 1.1-1.07 1.25z"/><path d="M275 77.52c-.82.4-1.72.71-1.78-.12 0-.33.24-.7 1.56-1.33.31-.15 1.07-.49 1.29.2s-.76 1.1-1.07 1.25z" opacity=".1"/><path fill="orange" d="M272.81 70.3c-.81 1.43-2.65 2-3.81 2.42-3.09 1.23-5.33 1.93-6.44-.88a3.42 3.42 0 0 1-.24-1c-.18-2.12 2-3.18 3.12-3.76 1.34-.71 2.29-1.17 3-1.47a5.46 5.46 0 0 1 2.2-.56c.62 0 2 .13 2.5 2.72a3.71 3.71 0 0 1-.33 2.53z"/><path fill="#263238" d="M272.84 68.28c0 1.58-1 2.86-2.2 2.86s-2.2-1.28-2.2-2.86 1-2.85 2.2-2.85 2.2 1.28 2.2 2.85z"/><path fill="#455a64" d="M272.59 68.28a2 2 0 1 1-1.95-2.52 2.28 2.28 0 0 1 1.95 2.52z"/><path fill="orange" d="M226.72 67.53l-.51.18-1.15.42-4-1.71c-3.85-1.66-8.41-3.6-9.28-3.89H212.2l.3.1.31.1.88.29.29.1.28.09h.16l.47.16.32.11 4.11 1.52.39.13 1.52.51 2.63.89.37.13 1.14.38.29.09h.2z"/><path fill="#fff" d="M226.72 67.53l-.51.18-1.15.42-4-1.71c-3.85-1.66-8.41-3.6-9.28-3.89H212.2l.3.1.31.1.88.29.29.1.28.09h.16l.47.16.32.11 4.11 1.52.39.13 1.52.51 2.63.89.37.13 1.14.38.29.09h.2z" opacity=".5"/><path fill="orange" d="M225.06 68.13L222 69.25s-6.87-3.19-11-5.18h-.06l-1.18-.58a9.29 9.29 0 0 1-1.7-.94 8.65 8.65 0 0 1 3.68 0h.07c.84.28 5.13 2.11 8.89 3.72h.08l.31.13z"/><path d="M225.06 68.13L222 69.25s-6.87-3.19-11-5.18c.68.28 7.63 3.35 9.35 2.92a1 1 0 0 0 .73-.57z" opacity=".1"/><path fill="orange" d="M233 63.75l-7.46 3.59s.07-6.4.13-11v-.84-3.42c0-1.85.22-2.23.71-1.93a22.68 22.68 0 0 1 3.33 3c.54.7 1.73 4.9 2.5 7.79a.19.19 0 0 1 0 .07c.05.17.09.33.13.49.4 1.33.66 2.25.66 2.25z"/><path d="M233 63.75l-7.46 3.59s.07-6.4.13-11c1.1 2.45 3.27 5.8 6.75 5.2.32 1.29.58 2.21.58 2.21z" opacity=".1"/><path fill="orange" d="M220.29 71.25c-.77-1.92 2.5-3.67 6.2-5.33S266.7 48.16 272 46.72s11.46.53 12.5 3.56c1.56 4.53-5 8.33-28.67 18.14-3.1 1.28-17 4.61-24.76 4.63-8.34.03-10.4-.85-10.78-1.8z"/><path fill="#fff" d="M220.29 71.25c-.77-1.92 2.5-3.67 6.2-5.33S266.7 48.16 272 46.72s11.46.53 12.5 3.56c1.56 4.53-5 8.33-28.67 18.14-3.1 1.28-17 4.61-24.76 4.63-8.34.03-10.4-.85-10.78-1.8z" opacity=".5"/><path d="M255.82 68.42c-3.1 1.28-17 4.61-24.76 4.63-8.33 0-10.39-.85-10.77-1.8s.3-2 1.59-2.88a1.26 1.26 0 0 0 .1.56c.35.86 2.21 1.67 9.77 1.64 7.08 0 17.25-5.75 20.06-6.92 21.46-8.89 29.84-9.63 28.42-13.75-.62-1.79-3.22-3.17-6.29-3.55 4.76-.57 9.63 1.27 10.55 3.93 1.56 4.53-5.02 8.33-28.67 18.14z" opacity=".1"/><path fill="#455a64" d="M231.87 64.91l.83-.36v1.23l-.83.37v-1.24zM233.4 64.25l.89-.38v1.23l-.89.39v-1.24zM234.98 63.56l.9-.38v1.23l-.9.39v-1.24zM236.57 62.88l.9-.39v1.23l-.9.39v-1.23zM238.16 62.19l.89-.39v1.24l-.89.38v-1.23zM239.75 61.5l.89-.38v1.23l-.89.39V61.5zM241.33 60.82l.9-.39v1.23l-.9.39v-1.23zM242.92 60.13l.89-.39v1.24l-.89.38v-1.23zM244.51 59.44l.89-.39v1.24l-.89.39v-1.24zM246.09 58.76l.9-.39v1.23l-.9.39v-1.23zM247.68 58.07l.9-.39v1.23l-.9.39v-1.23zM249.27 57.38l.89-.39v1.24l-.89.39v-1.24zM250.86 56.69l.89-.38v1.23l-.89.39v-1.24zM252.44 56.01l.9-.39v1.23l-.9.39v-1.23zM254.03 55.32l.9-.39v1.24l-.9.38v-1.23zM255.62 54.63l.89-.39v1.24l-.89.39v-1.24zM257.2 53.95l.9-.39v1.23l-.9.39v-1.23zM258.79 53.26l.9-.39v1.23l-.9.39v-1.23zM260.38 52.57l.9-.39v1.24l-.9.39v-1.24zM261.97 51.88l.89-.38v1.23l-.89.39v-1.24zM263.56 51.2l.89-.39v1.23l-.89.39V51.2zM266.04 50.12v1.24l-.9.38v-1.23l.9-.39zM267.63 49.44v1.23l-.9.39v-1.24l.9-.38zM269.21 48.75v1.23l-.89.39v-1.23l.89-.39zM270.8 48.06v1.24l-.9.38v-1.23l.9-.39zM275 47.56a4.37 4.37 0 0 1 1.66-.78v.82zM278.56 46.59v1.13c-.42 0-.83-.06-1.25-.08v-1a6.51 6.51 0 0 1 1.25-.05zM282.55 48.19c-.35 0-.67-.07-1-.11s-.64-.1-.95-.13c-.46-.07-.91-.12-1.36-.16v-1.13a6.13 6.13 0 0 1 1.59.43 5.23 5.23 0 0 1 .91.47 3.93 3.93 0 0 1 .42.29c.14.15.27.22.39.34z"/><path fill="orange" d="M254 58.24l-10.49 5.06s-16.72-9-28.72-15.51c-6.41-3.5-11.3-6.22-11.22-6.32.2-.27 3.42-.24 4.7-.07a1.9 1.9 0 0 1 .36.07c.54.15 19.46 7.16 32.71 12.07z"/><path d="M254 58.24l-10.49 5.06s-16.72-9-28.72-15.51c.94.47 22.45 11.31 25.26 9.68 1.06-.61 1.34-2.2 1.26-3.95z" opacity=".1"/><path fill="orange" d="M255.57 57.54l-3.13 1.51c-8-3.35-41.24-16.5-44-17.6a.32.32 0 0 0-.09 0h-.07a1.9 1.9 0 0 1 .36.07c.8.16 46.93 16.02 46.93 16.02z"/><path fill="#fff" d="M255.57 57.54l-3.13 1.51c-8-3.35-41.24-16.5-44-17.6a.32.32 0 0 0-.09 0h-.07a1.9 1.9 0 0 1 .36.07c.8.16 46.93 16.02 46.93 16.02z" opacity=".5"/><path fill="orange" d="M233 57.79c-1 .5-2.14.89-2.22-.15 0-.42.29-.87 1.95-1.67.38-.19 1.33-.6 1.61.26s-.92 1.37-1.34 1.56z"/><path d="M233 57.79c-1 .5-2.14.89-2.22-.15 0-.42.29-.87 1.95-1.67.38-.19 1.33-.6 1.61.26s-.92 1.37-1.34 1.56z" opacity=".1"/><path fill="orange" d="M224.13 53.29c-1 .5-2.15.89-2.23-.14 0-.43.3-.88 1.95-1.68.39-.18 1.34-.6 1.62.26s-.95 1.37-1.34 1.56z"/><path d="M224.13 53.29c-1 .5-2.15.89-2.23-.14 0-.43.3-.88 1.95-1.68.39-.18 1.34-.6 1.62.26s-.95 1.37-1.34 1.56z" opacity=".1"/><path fill="orange" d="M215.2 48.74c-1 .46-2 .83-2.08-.13 0-.4.28-.82 1.82-1.56.36-.18 1.25-.56 1.51.24s-.89 1.27-1.25 1.45z"/><path d="M215.2 48.74c-1 .46-2 .83-2.08-.13 0-.4.28-.82 1.82-1.56.36-.18 1.25-.56 1.51.24s-.89 1.27-1.25 1.45z" opacity=".1"/><path fill="orange" d="M246.32 56.77c-.81 1.44-2.65 2-3.81 2.42-3.09 1.24-5.33 1.93-6.44-.88a3.42 3.42 0 0 1-.24-1c-.18-2.12 2-3.17 3.12-3.76 1.34-.71 2.29-1.17 3-1.46a5.53 5.53 0 0 1 2.2-.57c.63 0 2 .14 2.5 2.72a3.71 3.71 0 0 1-.33 2.53z"/><ellipse cx="244.15" cy="54.76" fill="#263238" rx="2.2" ry="2.85"/><path fill="#455a64" d="M246.1 54.76a2 2 0 1 1-1.95-2.52 2.29 2.29 0 0 1 1.95 2.52z"/><path fill="orange" d="M212.84 62.86l-.31-.1z"/></g><g><path fill="#455a64" d="M431.61 183.52l-10.6 6.96-26.37-.26 4.62-15.34 26.55-.34 5.8 8.98z"/><path fill="#37474f" d="M425.81 174.54l-2.25-1.12-25.79.27-4.55 16.1 1.42.43 4.62-15.34 26.55-.34z"/><path fill="orange" d="M441.79 220.08l-10.36 4.81-43.03-15.34 5.38-15.09 43.03 15.34 4.98 10.28z"/><path fill="orange" d="M436.81 209.8l1.77 1.93 4.73 9.55-11.55 5.3-43.45-15.61.09-1.42 43.03 15.34 10.36-4.81-4.98-10.28z"/><path d="M436.81 209.8l1.77 1.93 4.73 9.55-11.55 5.3-43.45-15.61.09-1.42 43.03 15.34 10.36-4.81-4.98-10.28z" opacity=".1"/><path fill="#263238" d="M339.73 178.13l6.26 9.55 44.66 9.65 3.37-15.66-44.65-9.66-9.64 6.12z"/><path fill="#37474f" d="M339.73 178.13l6.26 9.55 44.66 9.65-.97 2.59-43.69-9.49-6.1-9.09-.16-3.21z"/><path fill="orange" d="M340.71 383.27l-12-3.6 69.41-220.17c.88-2.79 2.91-4.61 4.58-4.11l.27.08c1.67.51 2.35 3.15 1.54 5.95z"/><path d="M340.71 383.27l-12-3.6 69.41-220.17c.88-2.79 2.91-4.61 4.58-4.11l.27.08c1.67.51 2.35 3.15 1.54 5.95z" opacity=".4"/><g style="mix-blend-mode:multiply" opacity=".3"><path d="M399.2 163.61q-4 12.06-7.87 24.16c-2.6 8.06-5.17 16.13-7.64 24.23s-4.88 16.22-7.13 24.39l-1.65 6.13-1.54 6.16c-.95 4.11-1.79 8.27-2.88 12.38-2.19 8.2-5 16.2-7.91 24.16l-8.82 23.83a370.93 370.93 0 0 0-14.58 48.63c1.72-8.3 3.83-16.51 6.24-24.63s5.16-16.14 8-24.11l8.75-23.86c2.87-8 5.66-16 7.82-24.15 1.06-4.08 1.92-8.23 2.89-12.36l1.57-6.16 1.66-6.14c2.29-8.16 4.72-16.27 7.23-24.37q7.53-24.27 15.86-48.29zM401.09 159.08l-2.35 9.86-2.51 9.83c-1.7 6.54-3.44 13.07-5.27 19.58s-3.8 13-5.87 19.42-4.23 12.84-6.8 19.1l1.74-4.76 1.63-4.8c1.07-3.2 2.13-6.41 3.11-9.64 2-6.45 3.89-12.95 5.71-19.45s3.68-13 5.43-19.54z"/><path d="M346.74 334.23c1.38-3 2.71-6.06 4-9.11s2.63-6.1 3.91-9.17c2.55-6.13 5-12.31 7.24-18.55s4.5-12.5 6.34-18.87c.48-1.59.94-3.19 1.33-4.8s.86-3.21 1.18-4.84.71-3.24 1-4.87l.74-4.92a108.44 108.44 0 0 1-3.95 19.52c-1.79 6.4-3.92 12.71-6.19 18.95s-4.8 12.4-7.41 18.51-5.27 12.18-8.19 18.15zM383.69 227.12q-2.2 5.46-4.3 11c-1.39 3.67-2.75 7.36-3.91 11.1a36.73 36.73 0 0 0-1.35 5.69 5 5 0 0 0 0 1.39.36.36 0 0 0 .09.19h.1a2.19 2.19 0 0 0 .45-.46 15.18 15.18 0 0 0 1.41-2.53 37 37 0 0 0 1.94-5.53 31.56 31.56 0 0 0 1.06-5.79 34.21 34.21 0 0 1-2.66 11.47 13.67 13.67 0 0 1-1.4 2.64 2.42 2.42 0 0 1-.58.57.52.52 0 0 1-.58 0 .79.79 0 0 1-.26-.45 5.68 5.68 0 0 1 0-1.54 36.44 36.44 0 0 1 1.33-5.78c1.19-3.76 2.56-7.45 4-11.1s3.02-7.3 4.66-10.87zM360.06 308.48c-2.87 7.4-5.8 14.77-8.94 22-.78 1.82-1.57 3.64-2.4 5.45s-1.75 3.56-2.56 5.36a73.71 73.71 0 0 0-4 11.14 38.45 38.45 0 0 0-1.13 5.79 8.94 8.94 0 0 0 .11 2.88 1.73 1.73 0 0 0 .66 1.09c.21.11.3.13.48 0a1.84 1.84 0 0 0 .48-.45 22 22 0 0 0 2.55-5.28c.68-1.85 1.27-3.74 1.79-5.65a48.17 48.17 0 0 0 1.25-5.79 14.15 14.15 0 0 0 .14-1.46 2.7 2.7 0 0 0-.19-1.36c-.09-.14-.29-.12-.47 0a2.12 2.12 0 0 0-.48.51 8.38 8.38 0 0 0-.75 1.26 35.77 35.77 0 0 0-2.07 5.54c-.28.95-.53 1.91-.73 2.88-.1.49-.18 1-.24 1.47a3.64 3.64 0 0 0 0 1.47 3.51 3.51 0 0 1-.07-1.48q.08-.74.21-1.47c.18-1 .41-1.94.66-2.9a34.7 34.7 0 0 1 2-5.62 10.05 10.05 0 0 1 .75-1.31 2.64 2.64 0 0 1 .54-.57.79.79 0 0 1 .41-.16.5.5 0 0 1 .44.2 2.91 2.91 0 0 1 .26 1.54c0 .5-.07 1-.13 1.49a50 50 0 0 1-1.23 5.95c-.51 1.92-1.09 3.82-1.76 5.7-.33.93-.69 1.86-1.1 2.77a12.48 12.48 0 0 1-1.47 2.64 2.16 2.16 0 0 1-.6.56.9.9 0 0 1-.48.13 1.26 1.26 0 0 1-.44-.16 2.16 2.16 0 0 1-.89-1.36 9.37 9.37 0 0 1-.13-3 32.23 32.23 0 0 1 1.14-5.87 72.8 72.8 0 0 1 4.14-11.18c.83-1.81 1.78-3.55 2.59-5.35s1.64-3.61 2.44-5.42q4.71-10.97 9.22-21.98zM332 380.64q.87-4.18 1.83-8.36l1.95-8.33 2.07-8.3c.7-2.77 1.44-5.52 2.2-8.27-.58 2.8-1.19 5.58-1.83 8.36l-1.95 8.33-2.07 8.3c-.73 2.76-1.47 5.52-2.2 8.27zM335.12 381.59a23.88 23.88 0 0 0 2.52-6.52 19.44 19.44 0 0 0 .38-6.92 28 28 0 0 1 0-7.09 60.7 60.7 0 0 1 1.17-7c-.41 2.32-.67 4.66-.87 7a30.8 30.8 0 0 0 .15 7 17.65 17.65 0 0 1-.39 7.09 19.55 19.55 0 0 1-2.96 6.44z"/><path d="M357.8 316q-2.94 8.19-5.18 16.6c-.74 2.8-1.4 5.63-1.86 8.48s-.87 5.75-1.46 8.59-1.23 5.68-2.07 8.47a40.48 40.48 0 0 1-3.21 8.12 51 51 0 0 0-3.85 7.77 82.07 82.07 0 0 0-2.84 8.21 61.34 61.34 0 0 1 6.31-16.19 39.84 39.84 0 0 0 3.12-8.05q1.2-4.17 2.09-8.42c.6-2.84 1.08-5.69 1.53-8.56s1.19-5.69 2-8.49c1.5-5.59 3.37-11.09 5.42-16.53zM403.64 155.83q-1.08 5.14-2.29 10.26c-.79 3.42-1.65 6.81-2.5 10.21s-1.79 6.78-2.77 10.15-2 6.72-3.28 10c.55-1.67 1.05-3.34 1.52-5s.94-3.37 1.39-5.07c.9-3.38 1.8-6.77 2.65-10.16L401 166z"/></g></g><g><path fill="#455a64" d="M449.72 471H50.28a203.62 203.62 0 0 1 14.54-24.57q2.61-3.8 5.4-7.48c.61-.81 1.24-1.64 1.87-2.44 1.26-1.62 2.55-3.22 3.85-4.8s2.65-3.14 4-4.69l2-2.29c1.37-1.53 2.78-3 4.2-4.52s2.87-3 4.34-4.4c.72-.73 1.47-1.44 2.22-2.16A218.69 218.69 0 0 1 119.14 392q5.14-3.6 10.52-6.91c1.19-.74 2.39-1.46 3.61-2.18 2.42-1.43 4.87-2.81 7.35-4.16l3-1.61 1.69-.86c.57-.29 1.14-.59 1.72-.87l.97-.41.46-.22 2.81-1.36c1.2-.57 2.4-1.14 3.62-1.68 1-.45 2-.88 2.93-1.3s2-.85 2.94-1.25l.52-.22 2.45-1c1.31-.52 2.65-1.05 4-1.56l2-.76q7-2.61 14.34-4.77l1.83-.52a.16.16 0 0 0 .09 0l.54-.15q1.47-.42 2.94-.81l1.05-.27c1-.28 2-.54 3.05-.79 1.29-.32 2.58-.64 3.86-.93s2.37-.55 3.58-.81l.61-.12 2-.41.22-.05.41-.08.81-.16h.09l.91-.17h.12l1.74-.33h.08c.54-.11 1.08-.2 1.63-.3l4.36-.72h.09c1.36-.2 2.72-.4 4.08-.58a7.9 7.9 0 0 1 .85-.11c1.2-.18 2.42-.32 3.62-.46l.44-.05c1.14-.14 2.26-.25 3.41-.36.69-.09 1.4-.16 2.1-.21.48-.05 1-.1 1.46-.12 1.08-.11 2.16-.19 3.26-.26h.39c1-.09 2.07-.16 3.11-.21 1.35-.07 2.68-.14 4-.18a86 86 0 0 1 3.21-.1H249.95q9.11 0 18 .67l3.3.28 1.61.16 1.66.16q2.32.25 4.62.54c1.72.21 3.43.45 5.14.7l3.22.49c3.22.53 6.41 1.11 9.57 1.76 2.11.44 4.2.9 6.29 1.39q4.69 1.11 9.3 2.4c2 .57 4.1 1.18 6.12 1.81a226.21 226.21 0 0 1 45.88 20 221.05 221.05 0 0 1 42.66 32q1.72 1.68 3.43 3.38c2.27 2.28 4.47 4.61 6.63 7s4.26 4.79 6.3 7.25a208.14 208.14 0 0 1 26 39.65z"/><g opacity=".2"><path d="M290.09 370c-1.66 2.94-4.33 3.52-7.43 3.73s-6-1.37-9.28.58-6.61 12.51-10.95 13.1-12-9.38-13.62-12.32 3.72-9.2 1.19-12.12-7-2.36-14-2.94c-.44 0-.91-.06-1.41-.07-7.57-.2-21.87 2.18-21.3 4.58.16.68 2 1 4.6 1.12 7 .41 19.51-.14 20 3.56.61 5.09-17.14 13.69-20.22 12.91s-7.24-5.86-11.77-6.45-8.27 2.93-11.12 3.32a7.08 7.08 0 0 1-3.47-.74c-2.05-.79-4.37-1.9-7.08-1.41-4.33.77-5.37 4.3-7.64 5.67s-7.64 1.37-8.25 4.49c-.3 1.57 1.38 2.79 3.38 3.86s4.35 2 5.28 3c1.86 2-2.27 8.61-.41 10s13.42-8.23 16.3-10.57 5.37-12.52 11.56-12.33 8.25 10.18 10.32 11.15 6.61-2.34 13.41-1 11.55 15.48 12.82 19.77 4.13 8.62 1.66 10.38-13.63-1.18-15.06-3.91 7.42-6.85 6.8-7.82-5.78-2.36-8.45-.83-3.92 4.72-6.82 5.51-10.53-7.43-12.58-5.09 2 9.79 4.12 11.55 9.7 2.74 10.31 4.69-5.15 6.25-12.17 5.87-12.79-5.48-15.48-3.33-1.23 7.82-3.09 9.78-12 .59-16.92 5.66-7.23 12.71-12.18 17-7.21-1.17-13.82 4.89a18 18 0 0 0-4 5.74H71.83c0-.28 0-.56-.08-.84-1.22-11.74 3.1-24.06 11.77-34 0 0 1.24-6.46 2.47-10.56s27.86-20.54 31-25.23c1.29-2 1.73-5 2.19-8.34q5.14-3.6 10.52-6.91c1.19-.74 2.39-1.46 3.61-2.18 2.42-1.43 4.87-2.81 7.35-4.16l3-1.61 1.69-.86c.57-.29 1.14-.59 1.72-.87l.93-.42.46-.22c.93-.47 1.87-.92 2.81-1.36l.73-.42c1.92-.91 3.87-1.78 5.83-2.63l2.94-1.26.52-.22 2.45-1c1.31-.52 2.65-1.05 4-1.56l2-.76q7-2.61 14.34-4.77l1.83-.52a.16.16 0 0 0 .09 0l.54-.15q1.47-.42 2.94-.81l1.05-.27c1-.28 2-.54 3.05-.79 1.29-.32 2.58-.64 3.86-.93s2.37-.55 3.58-.81l.61-.12 2-.41.22-.05 1.22-.24h.09l.91-.17h.12l1.74-.33h.07c.54-.11 1.08-.2 1.63-.3l4.36-.72h.09c1.36-.2 2.72-.4 4.08-.58a7.9 7.9 0 0 1 .85-.11c1.2-.18 2.42-.32 3.62-.46l.44-.05c1.14-.14 2.26-.25 3.41-.36.69-.09 1.4-.16 2.1-.21.48-.05 1-.1 1.46-.12 1.08-.11 2.16-.19 3.26-.26h.39c1-.09 2.07-.16 3.11-.21 1.35-.07 2.68-.14 4-.18a86 86 0 0 1 3.21-.1H249.95q9.11 0 18 .67c.21.28.42.53.62.78a.4.4 0 0 0 .1.12 18.2 18.2 0 0 0 3.93 3.61 40.51 40.51 0 0 0 9.38 4.3c7.91 2.55 9.77 6.07 8.11 8.98zM295.46 371.59c-1.08 2.46 3.92 3.33 6.81 4.89s5.15 2.54 6.81 0-.62-5.48-2.89-6.06-9.7-1.18-10.73 1.17zM334.46 394.47c1.9 1.9 5.16 1.56 7.43 4.3s1.44 7.43 4.33 8.8 4.95 0 5.16-1.95-4.13-6.85-3.71-7.83 6 1.37 7.22 4.31-1.24 7 1.65 7.82 2.27-2.74 3.51-3.52 3.92-.39 3.71-2.74-3.51-7.43-6.19-9.19-4.74-3.72-9.28-4.69-8.88-.2-11.15 1.56-3.86 1.96-2.68 3.13zM423.74 431.32a3.43 3.43 0 0 1-1.16 2.06c-4.34 2.94-9.5-7.23-15.48-9.18s-8.67-9.2-9.9-7.63-.83 3.71-2.69 6.25-4.54 2-5.78 6.85 5.78 13.88 4.13 16.82-3.71 1.95-7 1.76-2.68 2.54-7 1.36-.62-6.25-7.43-12.31-9.08-7.24-7.63-10-.62-6.64 2.47-7 5.57 3.92 7.63 5.09 4.75-2.35 5-5.48-7.23-7.43-9.91-9.86-2.89-11.26-1.86-13 4.13-1.17 5-5.47c.48-2.53-3.74-6.76-7.31-9.81a218.67 218.67 0 0 1 58.92 49.55zM449.72 471h-63.37c-1.65-3.19-4.07-7.17-4.22-10.21-.21-3.9 3.91-3.73 11.76-9.21s9.9-5.08 15.89-3.13A90 90 0 0 0 423 452c3.43.57 8.06 8.87 9.6 8.82h.09c1.44-.4 1.66-2.94 2.27-6.65a8.21 8.21 0 0 1 2.57-4.2A203.43 203.43 0 0 1 449.72 471z"/></g><path d="M272.92 352.47c-1.41.13-2.8.3-4.19.46-4.16.51-8.26 1.13-12.33 1.88a206.09 206.09 0 0 0-21.78 5.19c-5.67 1.67-11.25 3.57-16.7 5.7a207.81 207.81 0 0 0-26.61 12.6q-8.46 4.79-16.37 10.3c-1.09.76-2.16 1.53-3.22 2.31A194 194 0 0 0 107.18 471h-56.9a203.62 203.62 0 0 1 14.54-24.57q2.61-3.8 5.4-7.48c.61-.81 1.24-1.64 1.87-2.44 1.26-1.62 2.55-3.22 3.85-4.8s2.65-3.14 4-4.69l2-2.29c1.37-1.53 2.78-3 4.2-4.52s2.87-3 4.34-4.4c.72-.73 1.47-1.44 2.22-2.16A218.69 218.69 0 0 1 119.14 392q5.14-3.6 10.52-6.91c1.19-.74 2.39-1.46 3.61-2.18 2.42-1.43 4.87-2.81 7.35-4.16l3-1.61 1.69-.86c.57-.29 1.14-.59 1.72-.87l.97-.41.46-.22 2.81-1.36.73-.42 2.9-1.33q2.91-1.32 5.87-2.55l3-1.22c1.31-.52 2.65-1.05 4-1.56l2-.76q7-2.59 14.34-4.77l1.83-.52a.16.16 0 0 0 .09 0l.54-.15q1.47-.42 2.94-.81l1.05-.27c1-.28 2-.54 3.05-.79 1.29-.32 2.58-.64 3.86-.93s2.37-.55 3.58-.81l.61-.12 2-.41.22-.05 1.22-.24h.09l.91-.17h.12l1.74-.33h.04c.54-.11 1.08-.2 1.63-.3l4.36-.72h.09c1.36-.2 2.72-.4 4.08-.58a7.9 7.9 0 0 1 .85-.11c1.2-.18 2.42-.32 3.62-.46l.44-.05c1.14-.14 2.26-.25 3.41-.36.69-.09 1.4-.16 2.1-.21.48-.05 1-.1 1.46-.12 1.08-.11 2.16-.19 3.26-.26h.39c1-.09 2.07-.16 3.11-.21 1.35-.07 2.68-.14 4-.18a86 86 0 0 1 3.21-.1H249.95q9.11 0 18 .67l3.3.28z" opacity=".1"/><path fill="#fff" d="M449.72 471h-11.37a200.57 200.57 0 0 0-5.75-10.21q-2.24-3.78-4.67-7.46a210.32 210.32 0 0 0-13.93-18.7 215.68 215.68 0 0 0-16.84-18.05 219.78 219.78 0 0 0-26.84-21.89q-7.59-5.28-15.69-9.93a229.16 229.16 0 0 0-82-28.22q-7.55-1.08-15.26-1.66c-.34 0-.67-.06-1-.07q-8.46-.63-17.11-.63a234.66 234.66 0 0 0-53.26 6.09l.54-.15q1.47-.42 2.94-.81l1.05-.27c1-.28 2-.54 3.05-.79 1.29-.32 2.58-.64 3.86-.93s2.37-.55 3.58-.81l.61-.12 2-.41.22-.05 1.22-.24h.09l.91-.17h.12l1.74-.33h.07c.54-.11 1.08-.2 1.63-.3l4.36-.72h.09c1.36-.2 2.72-.4 4.08-.58a7.9 7.9 0 0 1 .85-.11c1.2-.18 2.42-.32 3.62-.46l.44-.05c1.14-.14 2.26-.25 3.41-.36.69-.09 1.4-.16 2.1-.21.48-.05 1-.1 1.46-.12 1.08-.11 2.16-.19 3.26-.26h.39c1-.09 2.07-.16 3.11-.21 1.35-.07 2.68-.14 4-.18a86 86 0 0 1 3.21-.1H249.95q9.11 0 18 .67l3.3.28 1.61.16 1.66.16q2.32.25 4.62.54c1.72.21 3.43.45 5.14.7l3.22.49c3.22.53 6.41 1.11 9.57 1.76 2.11.45 4.2.91 6.29 1.39q4.69 1.11 9.3 2.4c2 .57 4.1 1.18 6.12 1.81a226.21 226.21 0 0 1 45.88 20 221.05 221.05 0 0 1 42.66 32q1.72 1.68 3.43 3.38c2.27 2.28 4.47 4.61 6.63 7s4.26 4.79 6.3 7.25a208.14 208.14 0 0 1 26 39.65z" opacity=".3"/></g><g><ellipse cx="250" cy="391.89" fill="#263238" rx="105.32" ry="10.99"/></g><g><path fill="#eb9481" d="M352.74 376.05c-2.15.24-59.52-12.37-61.4-14.24-.73-.7.62-9.16 2.55-19.35l.06-.32c.39-2.09 8.35-37.77 8.35-37.77l38 8.86-9.24 36.64-.16.62s19.8 14.65 21.65 16.92 2.34 8.42.19 8.64z"/><path fill="#ebebeb" d="M291.34 361.81c1.88 1.87 59.25 14.48 61.4 14.25s1.65-6.39-.19-8.65-21.65-16.92-21.65-16.92l.16-.62 1.33-4.12-37.15-8.44c-.41 1.49-1.23 4.53-1.29 4.84 0 .1 0 .21-.07.31-1.88 10.19-3.27 18.66-2.54 19.35z"/><path fill="orange" d="M352.75 376.05c-1.11.12-16.73-3.14-31.95-6.6-3.05-.69-6.09-1.39-9-2.07-10.83-2.55-19.74-4.85-20.47-5.57s.59-8.93 2.47-18.92c0-.14.05-.28.08-.43s.05-.22.06-.32h.06l37.06 7.71-.15.63s19.8 14.65 21.65 16.92 2.33 8.42.19 8.65z"/><path fill="#263238" d="M352.58 373.69c-9.62-2.37-48.64-11-58.33-12.59-.08 0-.09 0 0 .06 9.48 2.55 48.57 10.85 58.31 12.68.19.04.22-.1.02-.15zM335.15 350.88c-3.65-1.55-8.43-2-11.93.08-.14.08 0 .28.11.26a55.81 55.81 0 0 1 11.7.13.25.25 0 0 0 .12-.47zM337.54 353.14c-3.65-1.55-8.44-2-11.94.08-.14.08 0 .28.11.26a55.8 55.8 0 0 1 11.7.13.25.25 0 0 0 .13-.47zM339.92 355.4c-3.65-1.55-8.43-2-11.94.08-.13.08 0 .27.11.26a55.24 55.24 0 0 1 11.71.13.25.25 0 0 0 .12-.47z"/><path fill="#eb9481" d="M332.8 343.11l-36.66-9s14.11-67.39 13.77-69.11c-.42-2.21-36-103.75-36-103.75h35.85s37 80.48 39.57 96.4c2.4 15.06-16.53 85.46-16.53 85.46z"/><path fill="#455a64" d="M294.07 222.53l38.88-13.47-23.18-47.81h-35.85l20.15 61.28z"/><path fill="#263238" d="M326.94 205.92c-6.29 1.35-28.27 8.33-30.5 9.53v.13c2.52-.27 21.57-6 30.52-9.48.13-.03.04-.2-.02-.18zM309.43 161.25l-15.7 60.26-19.81-60.26h35.51z"/><path fill="#eb9481" d="M313.54 391.19c-2.07.65-60.8-.43-63-1.89-.84-.54-1.19-9.11-1.3-19.47v-.33c0-2.13 1.87-37.94 1.87-37.94l37.69.6-1.66 37.62v.64s22.3 10.47 24.56 12.33 3.9 7.79 1.84 8.44z"/><path fill="#ebebeb" d="M249.19 365.4V369.83c.11 10.36.45 18.93 1.31 19.47 2.2 1.46 60.94 2.54 63 1.89s.36-6.58-1.89-8.44-24.55-12.33-24.55-12.33v-.64l.17-4c-6.69-.08-26.11-.26-38.04-.38z"/><path fill="orange" d="M313.54 391.19c-2.07.65-60.8-.43-63-1.89-.84-.54-1.19-9.11-1.3-19.47v-.33l37.9.28v.64s22.3 10.47 24.56 12.33 3.9 7.79 1.84 8.44z"/><path fill="#263238" d="M312.92 388.9c-9.9-.43-49.85-1.21-59.67-.88-.08 0-.08.06 0 .07 9.8.63 49.76 1.09 59.66 1 .21-.03.21-.18.01-.19zM291.34 370c-3.88-.8-8.66-.29-11.68 2.43-.12.11 0 .27.16.24a54.7 54.7 0 0 1 11.5-2.18.25.25 0 0 0 .02-.49zM294.12 371.71c-3.88-.8-8.66-.29-11.68 2.43-.12.11 0 .27.16.23a54.68 54.68 0 0 1 11.5-2.17.25.25 0 0 0 .02-.49zM296.9 373.45c-3.88-.8-8.65-.28-11.68 2.44-.12.1 0 .27.16.23a54.68 54.68 0 0 1 11.5-2.17.25.25 0 0 0 .02-.5z"/><path fill="#eb9481" d="M309.77 161.25s-4 23-6.89 31.48c0 0-6.78 2.4-7.54 2.86l-7.83 165.5h-38.06s4.84-85.22 4.79-90.8c-.09-9 4.84-69.69 4.33-71.22-5.26-15.69 3.44-37.82 3.44-37.82z"/><path fill="#455a64" d="M255.32 221.22l39.1.83.92-26.46 7.54-2.86s5.38-12.52 6.89-31.48H262s-9.61 19.85-4.54 36.5z"/><path fill="#263238" d="M291.61 215.13c-10.35-.69-30.41-.84-33-.38-.06 0-.06.12 0 .13 2.56.52 26.92 1 33 .44.1-.01.1-.18 0-.19zM266.62 179.91c.71-.28 1.51-.35 2.24-.57a16.65 16.65 0 0 0 2.28-.8 17.39 17.39 0 0 0 3.92-2.36 9.13 9.13 0 0 0 2.55-3.71c.32-.76 1.7-4.79 1.71-4.82s.23-.06.23 0c0 .54-.81 4-1.08 4.85a8.81 8.81 0 0 1-2.55 4.26 14 14 0 0 1-4.38 2.52 14.55 14.55 0 0 1-2.54.72 6.6 6.6 0 0 1-2.42.15c-.1-.03-.06-.21.04-.24zM304.07 191.55a72.44 72.44 0 0 0-11.4 5.31c-.14.08-.05.3.1.23 3.85-1.65 7.76-3.22 11.51-5.08a.25.25 0 0 0-.21-.46zM305.29 165.19c0-.13-.24-.16-.24 0a126.81 126.81 0 0 1-.65 12.81c-.17 2-1.77 12.91-5.2 12.11-.57-.13-.86-.7-.95-1.56a13.85 13.85 0 0 1 .45-3.36c.38-2.28.69-4.58.88-6.89a62.88 62.88 0 0 0-.13-12.94.12.12 0 0 0-.23 0 118.4 118.4 0 0 1-1 17.85c-.43 2.84-1.86 7.13 1.11 7.56s5-6.72 5.36-8.68a65.75 65.75 0 0 0 .6-16.9z"/><path fill="#263238" d="M299.3 190.42a17.73 17.73 0 0 0-.78 2.26 5.22 5.22 0 0 0-.32 1.87.14.14 0 0 0 .24 0 6.76 6.76 0 0 0 .8-1.82c.26-.7.53-1.39.78-2.1a.38.38 0 0 0-.72-.21zM291.43 133a35.07 35.07 0 0 1-7.49 2.6c4.92-5.21 7.45-18.9 6.58-17.07-4.17 8.79-12.29 17.61-14.62 17.61a26.24 26.24 0 0 1-15.1-6.93c6.13-5.76 9.06-19.6 8.56-18.83-5.4 8.24-13.56 11.92-14.76 11.63-3.5-5.28-4.9-10.09-4.17-10.37 5.35-2.1 11.14-9.33 16.64-17.11 5.44-7.67 9-15.31 15.7-21.75 6.09-5.89 15.44-5.15 19.76-.45 11.33 12.23-7.73 59.05-11.1 60.67z"/><path fill="#263238" d="M301.72 71.48a9.41 9.41 0 0 1 2.43 3.12 22 22 0 0 1 1.46 3.71 37.4 37.4 0 0 1 1.23 7.87 59.42 59.42 0 0 1-1.36 15.82 94.15 94.15 0 0 1-4.74 15.16c-.49 1.23-1 2.44-1.56 3.65l-1.67 3.61-1.81 3.58-1.9 3.47 1.69-3.58 1.62-3.61 1.55-3.64c.48-1.23 1-2.44 1.44-3.68a102.39 102.39 0 0 0 4.53-15.1 63.2 63.2 0 0 0 1.56-15.63 38.53 38.53 0 0 0-1-7.79A22.25 22.25 0 0 0 304 74.7a12.58 12.58 0 0 0-1-1.7 6.29 6.29 0 0 0-1.28-1.52zM250.19 110a66.89 66.89 0 0 0 5.17-4.5q2.5-2.34 4.8-4.88c1.51-1.7 3-3.43 4.35-5.26s2.67-3.71 4-5.57c2.71-3.69 5.43-7.39 8.36-10.93 1.47-1.76 3-3.49 4.6-5.13a33 33 0 0 1 2.57-2.3 8.46 8.46 0 0 1 3-1.67 8.92 8.92 0 0 0-2.85 1.85c-.85.76-1.64 1.58-2.41 2.42-1.54 1.68-3 3.46-4.38 5.26-2.81 3.6-5.52 7.29-8.18 11-1.36 1.84-2.67 3.7-4.08 5.54a58.81 58.81 0 0 1-4.5 5.23 65.36 65.36 0 0 1-10.45 8.94z"/><path fill="#eb9481" d="M305.8 117.86c18.71 4.24 52.33 1.08 53.15-7.7.56-6.1-3.35-26.33-14.57-36.34-1.65-1.48-16.72 16.42-14.6 18.69a24.07 24.07 0 0 1 4.7 8.09c.34 1.16-19.05 4.82-26.85 6.61-14.42 3.32-7.04 9.47-1.83 10.65z"/><path fill="orange" d="M309.81 118.62s2.76-5.21-1.33-11.57c0 0 8-7.41 15.68-3.71a13.62 13.62 0 0 1 1.84 16.31s-5.63 4.74-16.19-1.03z"/><path fill="#fff" d="M321.47 113.83a1.33 1.33 0 1 0 1.33 1.33 1.33 1.33 0 0 0-1.33-1.33zm0 2.43a1.1 1.1 0 1 1 1.1-1.1 1.09 1.09 0 0 1-1.1 1.1zm-8-11.05a1.33 1.33 0 1 0 1.32 1.32 1.33 1.33 0 0 0-1.3-1.32zm0 2.42a1.1 1.1 0 1 1 1.09-1.1 1.1 1.1 0 0 1-1.07 1.1zm13.13-.63a1.1 1.1 0 0 1-1.08-1.09 1.11 1.11 0 0 1 .16-.57l-.14-.2a1.29 1.29 0 0 0-.25.77 1.34 1.34 0 0 0 1.34 1.33h.07a1.6 1.6 0 0 0-.1-.24z"/><path fill="orange" d="M170.394 257.785l54.24 15.255-28.39 100.944-54.24-15.255z"/><g fill="#020100" opacity=".1"><path d="M168.205 270.385l54.437 15.128-.171.617-54.437-15.128zM165.164 281.342l54.438 15.127-.172.617-54.437-15.128zM162.124 292.288l54.437 15.127-.172.617-54.437-15.127zM159.083 303.234l54.437 15.128-.171.616-54.438-15.127zM156.025 314.178l54.437 15.128-.171.616-54.437-15.127zM151.703 324.306l54.24 15.255-.173.615-54.24-15.255zM148.648 335.207l54.24 15.255-.173.615-54.24-15.255zM146.903 347.027l54.437 15.128-.172.616-54.437-15.127z"/></g><path fill="#263238" d="M196.717 265.317l4.201 1.167L172.783 367.8l-4.201-1.167zM194.953 302.696l4.521 1.271-8.577 30.5-4.522-1.272zM199.97 367.2l-13.08-3.63-7.33 6.13 18.3 5.09 2.11-7.59zM145.53 352.08l13.07 3.63 3.13 9.04-18.31-5.08 2.11-7.59z"/><path fill="#263238" d="M186.07 381.32l4.84 1.34 5.73-8.21-10.44-2.9 1.72 5.38-1.85 4.39z"/><path fill="#37474f" d="M180.82 382.83a6.92 6.92 0 1 0 8.51-4.82 6.92 6.92 0 0 0-8.51 4.82z"/><path fill="#dbdbdb" d="M183.84 383.67a3.78 3.78 0 1 0 4.66-2.67 3.78 3.78 0 0 0-4.66 2.67z"/><path fill="#263238" d="M188 382.45c-.14.52-.2 1-.12 1s.26-.39.4-.91.2-1 .13-1-.24.39-.41.91zM189.44 383.48c-.47.27-.82.55-.79.62s.46-.09.93-.36.83-.54.79-.61-.46.09-.93.35zM189.71 385.22c-.52-.15-1-.2-1-.12s.39.25.91.4 1 .2 1 .12-.39-.26-.91-.4zM188.68 386.64c-.27-.48-.54-.83-.61-.79s.09.46.35.93.54.82.61.78-.09-.45-.35-.92zM186.94 386.91c.15-.53.2-1 .13-1s-.26.39-.41.91-.2 1-.12 1 .26-.39.4-.91zM185.53 385.87c.47-.26.82-.54.78-.61s-.45.09-.93.36-.82.54-.78.61.45-.09.93-.36zM185.25 384.14c.53.14 1 .2 1 .12s-.38-.26-.91-.4-1-.2-1-.12.39.26.91.4zM186.29 382.72c.27.47.54.83.61.79s-.09-.46-.36-.93-.54-.83-.61-.79.07.46.36.93zM150.16 371.34l-4.84-1.34-.68-10 10.44 2.91-4.25 3.72-.67 4.71z"/><path fill="#37474f" d="M153.88 375.34a6.92 6.92 0 1 1-4.82-8.52 6.92 6.92 0 0 1 4.82 8.52z"/><path fill="#dbdbdb" d="M150.86 374.5a3.78 3.78 0 1 1-2.64-4.65 3.79 3.79 0 0 1 2.64 4.65z"/><path fill="#263238" d="M147.9 371.3c-.15.53-.33.94-.4.91s0-.46.12-1 .32-.93.4-.91.03.48-.12 1zM146.15 371.46c.27.47.43.89.36.93s-.35-.31-.61-.79-.43-.89-.36-.93.34.33.61.79zM145 372.8c.52.15.93.33.9.41s-.46 0-1-.12-.93-.33-.91-.41.51-.02 1.01.12zM145.18 374.55c.47-.27.89-.43.93-.36s-.31.35-.79.62-.89.42-.93.35.32-.34.79-.61zM146.52 375.68c.15-.53.33-.93.41-.91s0 .46-.12 1-.33.93-.41.91-.02-.48.12-1zM148.27 375.52c-.26-.47-.42-.88-.35-.92s.34.31.61.78.42.89.35.93-.34-.31-.61-.79zM149.4 374.18c-.52-.15-.93-.33-.91-.41s.46 0 1 .13.93.32.91.4-.48.02-1-.12zM149.24 372.43c-.47.27-.88.43-.92.36s.31-.35.78-.61.89-.43.93-.36-.31.34-.79.61zM203.456 262.272l9.086 2.523-1.268 4.568-9.086-2.524z"/><path fill="#c7c7c7" d="M241.418 193.09l4.133 1.149-21.861 78.669-4.134-1.149z"/><path fill="#263238" d="M240.87 191.696l5.887 1.636-2.753 9.905-5.886-1.636z"/><path fill="#eb9481" d="M311.17 146.19l-1.4 15.06H262s13.61-37.61 27.15-50.3c5.39-5 10.39-3.55 14.2.32.87.88 11.38 18.23 12.27 24.43.73 5.1-4.45 10.49-4.45 10.49z"/><path fill="orange" d="M311.17 146.19l-.34 3.69-43.83-1.21c5.18-12.14 13.67-29.79 22.14-37.72 5.39-5 10.39-3.55 14.2.32.87.88 11.38 18.24 12.27 24.44.74 5.09-4.44 10.48-4.44 10.48z"/><path fill="orange" d="M311.17 146.19l-.05.58-.06.62a1 1 0 0 1 0 .24v.61l-.15 1.6-35.89-1h-.22l-2.18-.06h-.23l-5.29-.15a201.24 201.24 0 0 1 13.35-26.43l.12-.21c.35-.57.71-1.13 1.07-1.67l.13-.2a52.76 52.76 0 0 1 7.45-9.21c5.39-5 10.39-3.55 14.2.32a16.49 16.49 0 0 1 1.15 1.67 1 1 0 0 0 .12.19c.32.53.7 1.14 1.11 1.83l.12.21c1.41 2.36 3.21 5.52 4.89 8.73a1.71 1.71 0 0 0 .13.23c.28.54.56 1.08.83 1.62l.12.24c1.9 3.82 3.46 7.48 3.78 9.71.68 5.14-4.5 10.53-4.5 10.53z"/><path fill="#fff" d="M300.26 125.72a1.33 1.33 0 1 0 0 2.65 1.33 1.33 0 0 0 0-2.65zm0 2.42a1.1 1.1 0 1 1 1.09-1.09 1.1 1.1 0 0 1-1.09 1.09zm-21.13 8a1.33 1.33 0 1 0 1.33 1.32 1.33 1.33 0 0 0-1.33-1.36zm0 2.43a1.1 1.1 0 1 1 1.11-1.11 1.11 1.11 0 0 1-1.11 1.07zm8.45-9.65a1.33 1.33 0 1 0 1.33 1.33 1.33 1.33 0 0 0-1.33-1.37zm0 2.42a1.09 1.09 0 0 1-1.09-1.09 1.1 1.1 0 1 1 2.19 0 1.09 1.09 0 0 1-1.1 1.05zM305.75 115a1 1 0 0 1-.38.08 1.09 1.09 0 0 1-1.1-1.09 1.07 1.07 0 0 1 .37-.82 1 1 0 0 1-.12-.19 1.31 1.31 0 0 0-.48 1 1.34 1.34 0 0 0 1.33 1.33 1.26 1.26 0 0 0 .51-.11zm6 10.8a1.1 1.1 0 0 1-1-1.1.93.93 0 0 1 .15-.52 1.71 1.71 0 0 1-.13-.23 1.26 1.26 0 0 0-.25.76 1.34 1.34 0 0 0 1.33 1.34zm-13.9 11.68a1.33 1.33 0 1 0 1.32 1.32 1.33 1.33 0 0 0-1.34-1.36zm0 2.42a1.1 1.1 0 1 1 1.1-1.1 1.1 1.1 0 0 1-1.12 1.06zm12.15 6.43a1.09 1.09 0 0 1 1.09 1.06l.06-.62a1.33 1.33 0 0 0-2.48.66 1.34 1.34 0 0 0 1.33 1.33 1.31 1.31 0 0 0 1-.48v-.61a1.09 1.09 0 1 1-1.06-1.34zm-17-31.29a1.33 1.33 0 1 0 1.33 1.33 1.33 1.33 0 0 0-1.4-1.37zm0 2.43a1.1 1.1 0 1 1 1.1-1.1 1.1 1.1 0 0 1-1.17 1.1zm-11.22 2.69l-.13.2a1 1 0 0 1 .18.59 1.09 1.09 0 0 1-1.09 1.1.44.44 0 0 1-.16 0l-.12.21a1 1 0 0 0 .29 0A1.32 1.32 0 0 0 282 121a1.25 1.25 0 0 0-.29-.84zm5.45 22.9a1.33 1.33 0 1 0 1.32 1.33 1.33 1.33 0 0 0-1.39-1.33zm0 2.43a1.1 1.1 0 1 1 1.09-1.1 1.1 1.1 0 0 1-1.16 1.1zm-13.53 1.94a1.33 1.33 0 0 0-1.33 1.33.13.13 0 0 0 0 .06h.23a.13.13 0 0 1 0-.06 1.1 1.1 0 0 1 2.2 0 .49.49 0 0 1 0 .12h.22a.57.57 0 0 0 0-.13 1.33 1.33 0 0 0-1.39-1.32zm37.43-12a1.33 1.33 0 0 0 0 2.66 1.33 1.33 0 0 0 0-2.66zm0 2.43a1.1 1.1 0 1 1 1.1-1.1 1.1 1.1 0 0 1-1.17 1.09z"/><path fill="#263238" d="M304.52 143.34a37.94 37.94 0 0 0-7.16.86c-1.18.27-2.34.62-3.51 1-.58.19-1.16.35-1.74.51a5.89 5.89 0 0 1-1.85.28.06.06 0 0 0 0 .11 10.18 10.18 0 0 0 1.74.12 9.84 9.84 0 0 0 1.7-.26c1.2-.26 2.39-.6 3.58-.88 2.42-.57 4.83-1.14 7.26-1.48.1-.03.09-.27-.02-.26zM310.11 146.57a39.87 39.87 0 0 0-5.83-.89 26.37 26.37 0 0 0-2.95 0c-.47 0-.94 0-1.41.08s-1 .16-1.56.19c-.05 0-.06.11 0 .11.49 0 1 .09 1.46.12l1.47.08c1 .06 2 .13 2.94.17 2 .09 3.91.21 5.87.39.1-.03.11-.23.01-.25zM299.92 155.31a2.66 2.66 0 0 0-1 1.35 4.93 4.93 0 0 0-.32 1.64c0 .58.35.76.62.19a2.67 2.67 0 0 0 .2-.81 2 2 0 0 0-.07-.87 2.17 2.17 0 0 1 .21 1.82 1.11 1.11 0 0 1-.26.47.63.63 0 0 1-.62.17.68.68 0 0 1-.47-.43 1.47 1.47 0 0 1-.11-.52 4 4 0 0 1 .45-1.85 2.2 2.2 0 0 1 1.37-1.16z"/><path fill="#eb9481" d="M287.87 119.21c-4.16 6-21.71 30.93-22.22 32.23s-9.5 27.63-10.44 31.88c-.66 3-21.33-7-20.6-9.56 1.69-6 6.39-24.18 10.9-30.74 5.89-8.57 30.11-28.92 37.46-31.87s11.74-1.8 4.9 8.06z"/><path fill="#eb9481" d="M243.48 193.08c1.3-.78 1.71-.1.76 2.4s-6.86 11.62-3.51 13.41 11.5-11.18 12.77-15.47a71.33 71.33 0 0 0 1.82-11.69c-2.09 2.21-7.68 7.07-11.84 11.35z"/><path fill="#eb9481" d="M237.48 168.2c-5.67 6.43-13.11 14.09-14.94 23.59a4.76 4.76 0 0 0 .37 3.11c-.89 4.24.84 5.94.84 5.94.37 4.2 2.39 5.69 2.39 5.69s-1 5 1.92 6.1c3.26 1.25 4-6 6.88-9.74 6.55-8.56 18.25-18.88 20.38-21.16z"/><path fill="#263238" d="M235.5 189.1a70.18 70.18 0 0 0-5.3 7.82 70 70 0 0 0-4 9.56.08.08 0 0 1-.16 0 36.71 36.71 0 0 1 9.35-17.48c.11-.1.21 0 .11.1zM230.91 184.4c-1.68 2.59-4.62 7.16-7.06 16.46h-.06a32.85 32.85 0 0 1 7-16.54c.12-.15.21-.09.12.08zM228.4 181.92a51.76 51.76 0 0 0-5.46 13h-.06c1.22-6.18 2.37-8.28 5.38-13.06.1-.22.25-.12.14.06zM261.45 163.7c.24-1.24.57-2.46.91-3.68s.71-2.42 1.11-3.61.82-2.39 1.31-3.55a10.35 10.35 0 0 1 .85-1.74c.39-.5.75-1 1.16-1.51-.26.58-.56 1.14-.84 1.7a9.68 9.68 0 0 0-.62 1.74c-.36 1.21-.76 2.4-1.15 3.6s-.82 2.38-1.28 3.55-.9 2.35-1.45 3.5z"/><path fill="orange" d="M277.23 114a13.55 13.55 0 0 0 9.06 8.25s-1.29 10.85-9.51 13a13.64 13.64 0 0 1-12-11.21s.69-7.52 12.45-10.04z"/><path fill="#fff" d="M280.67 119.63A1.33 1.33 0 1 0 282 121a1.33 1.33 0 0 0-1.33-1.37zm0 2.42a1.1 1.1 0 1 1 1.09-1.1 1.1 1.1 0 0 1-1.09 1.1zm-9.4 4.77a1.33 1.33 0 1 0 1.33 1.32 1.33 1.33 0 0 0-1.33-1.32zm0 2.42a1.1 1.1 0 1 1 1.09-1.1 1.09 1.09 0 0 1-1.09 1.1zm-2.68-11.34a1.14 1.14 0 0 0-.17.15 1.08 1.08 0 0 1 .3.75 1.09 1.09 0 0 1-1.1 1.09 1 1 0 0 1-.72-.28.73.73 0 0 0-.14.18 1.26 1.26 0 0 0 .86.33 1.32 1.32 0 0 0 1.38-1.32 1.28 1.28 0 0 0-.41-.9z"/><path fill="#263238" d="M286.44 126.32s0-.07-.06 0c-.36.51-.75 1-1.15 1.48a8.05 8.05 0 0 1-.63.68 38 38 0 0 0 1.65-4.55s0-.06-.05 0a31 31 0 0 1-3.84 7.07 11.3 11.3 0 0 1-5.61 4.32.1.1 0 1 0 .05.19 11.76 11.76 0 0 0 5.9-3.87 14.27 14.27 0 0 0 1.74-2.79c.3-.3.61-.6.89-.92a10.44 10.44 0 0 0 1.11-1.61z"/><path fill="#eb9481" d="M292.48 110.32c.39.88 5.9 6.05 10.08 5.07 1.36-.32-.07-7.83-.07-7.83v-.57l.29-8.09-10.18-4.16-1.46-.53s.06 2.22.17 5v2.09c0 .42 0 .63.06 1s.05.66.07 1a51.47 51.47 0 0 0 1.04 7.02z"/><path fill="#263238" d="M291.31 99.19a16.25 16.25 0 0 0 11.21 7.8l.29-8.09-10.21-4.16-1.46-.53s.06 2.22.17 4.98z"/><path fill="#eb9481" d="M311.73 85c3.34 13.81-4.55 17.37-7.53 18.09-2.7.65-12 2.52-16.74-10.86s.61-19.31 6.71-21.13 14.21.11 17.56 13.9z"/><path fill="#263238" d="M308.06 82.38h-1a1.59 1.59 0 0 1-1-.16.51.51 0 0 1-.15-.6 1.28 1.28 0 0 1 1.14-.58 1.86 1.86 0 0 1 1.27.36.54.54 0 0 1-.26.98zM299 84.69c.31-.12.58-.28.88-.43a1.52 1.52 0 0 0 .82-.6.5.5 0 0 0-.14-.6 1.23 1.23 0 0 0-1.27 0 1.78 1.78 0 0 0-1 .9.54.54 0 0 0 .71.73zM301.66 87.72s-.06.06-.05.1c.28.93.45 2-.31 2.57 0 0 0 .07 0 0 1.01-.39.78-1.84.36-2.67z"/><path fill="#263238" d="M300.57 87c-1.53.29-.85 3.33.58 3.07s.7-3.34-.58-3.07z"/><path fill="#263238" d="M300 87.27c-.23.23-.42.59-.74.69s-.71-.13-1-.38h-.05c.13.58.49 1.13 1.13 1.07s.88-.66.9-1.27c-.01-.07-.14-.21-.24-.11zM307.07 86.26s.09 0 .09.07c.18 1 .54 2 1.46 2.14-1.07.14-1.53-1.28-1.55-2.21z"/><path fill="#263238" d="M307.7 85.09c1.49-.44 2.28 2.58.89 3s-2.14-2.62-.89-3z"/><path fill="#263238" d="M308.38 85.13c.28.1.59.33.88.27s.5-.45.63-.82h.06c.16.57.13 1.22-.4 1.48s-1-.17-1.27-.71c-.05-.08-.01-.26.1-.22zM303.69 95.21c.27.18.55.45.9.42a2.39 2.39 0 0 0 1-.43h.05a1.29 1.29 0 0 1-1.11.73 1 1 0 0 1-.9-.71s.02-.03.06-.01zM306.81 90.87s.53 1.36.69 2c0 .07-.14.13-.36.2a3.23 3.23 0 0 1-3.34-.45c-.06-.05 0-.14.08-.11a4.89 4.89 0 0 0 3.07.13c0-.19-1-2.29-.88-2.33a6.43 6.43 0 0 1 1.59 0c-1-2.86-2.49-5.53-3.47-8.4 0-.1.11-.17.16-.08a48.36 48.36 0 0 1 4.12 8.89c.12.37-1.37.2-1.66.15z"/><path fill="#263238" d="M306.51 93a3.41 3.41 0 0 1-1.09 1.36 1.54 1.54 0 0 1-.9.27c-.71 0-.87-.62-.87-1.17a3.75 3.75 0 0 1 .11-.86 4.48 4.48 0 0 0 2.75.4z"/><path fill="#ff9cbd" d="M305.42 94.33a1.54 1.54 0 0 1-.9.27c-.71 0-.87-.62-.87-1.17a1.61 1.61 0 0 1 1.77.9z"/><path fill="#263238" d="M287.91 92.47a5.72 5.72 0 0 0 2.75-4.94c11.33-4.28 12.63-12.68 12.63-12.68 4.28 5.2 6.6 5.53 7.23 6.32 0 0-.86-5.51-4-8.85A11.5 11.5 0 0 0 292.67 70c-3.34 1.68-5.23 5.73-5.23 5.73s-3.64 1.73-4.12 5.32c-.81 5.95 4.59 11.42 4.59 11.42z"/><path fill="#263238" d="M303.31 74.33a9.88 9.88 0 0 1-.89 4.75 12.47 12.47 0 0 1-2.86 4l-.94.79c-.32.25-.68.46-1 .69a14.42 14.42 0 0 1-2.14 1.19c-.74.34-1.51.59-2.26.89l-2.35.6c.75-.3 1.51-.55 2.27-.83s1.47-.63 2.18-1a17.64 17.64 0 0 0 3.91-2.69 13 13 0 0 0 2.86-3.76 11.52 11.52 0 0 0 1.22-4.63z"/><path fill="orange" d="M296.23 73.48c0 1.47-2.48 2.63-5.47 2.58s-5.41-1.28-5.39-2.76 2.47-2.63 5.47-2.58 5.41 1.28 5.39 2.76z"/><path fill="#263238" d="M295 73.15c0 1.13-1.88 2-4.16 2s-4.11-1-4.09-2.1 1.88-2 4.15-2 4.15.95 4.1 2.1z"/><path fill="orange" d="M295 72l-.85-.38c1-2.15 3.49-2.25 4.69-2l-.19.91c-.08 0-2.71-.53-3.65 1.47zM285.33 92.36c0-.15-.59-3.69-.65-4.39s3.48-12.88 3.52-13l.4.24.44.15c-.23.68-3.41 11.68-3.44 12.5.06.64.64 4.26.65 4.3z"/><path fill="orange" d="M308.07 69.37c0 1.48-2.47 2.63-5.47 2.59s-5.41-1.29-5.38-2.76 2.47-2.64 5.47-2.59 5.4 1.28 5.38 2.76z"/><path fill="#263238" d="M306.86 69.13c0 1.12-1.88 2-4.16 2s-4.11-1-4.09-2.1 1.88-2 4.16-2 4.11.97 4.09 2.1z"/><path fill="#eb9481" d="M289.91 92.78s-3.73-3.92-5.56-2.53 1.45 7.4 3.92 7.92a2.41 2.41 0 0 0 3-1.76z"/><path fill="#263238" d="M285.33 92v.07A6.08 6.08 0 0 1 289 95.3a1.33 1.33 0 0 0-2-.06s0 .1.06.08a1.46 1.46 0 0 1 1.68.27 6.93 6.93 0 0 1 1 1.18c.1.13.35 0 .27-.15-.34-2.13-2.4-4.8-4.68-4.62z"/><path fill="#eb9481" d="M347.37 76s-11.22-12.32-20-15.64c-3.66-1.39-20.09-3.75-20.8.21-.64 3.57 13.7 4 13.7 4s-14.43-1.7-14.41 2.75 16.28 2.77 16.28 2.77-14.84-1.41-14.14 3.18c.57 3.46 15.39 2.77 15.39 2.77s-12.79-1.13-12.36 2.46c.47 4 14.19 4.19 14.19 4.19.79 6.68 3.22 9.89 7 11.74.93.44 15.15-18.43 15.15-18.43z"/><path fill="#263238" d="M325.32 64.84c-1.69-.26-3.4-.54-5.1-.65s-3.42-.16-5.13-.11a28.42 28.42 0 0 0-6.63.83 62.46 62.46 0 0 1 11.74-.25c1.71.11 3.41.14 5.12.25.04 0 .04-.06 0-.07zM325 71c-2.17-.24-4.31-.56-6.5-.71s-4.24-.09-6.41-.08c-.17 0-.11.09.05.1 2.18.08 4.18.32 6.35.43s4.35.12 6.51.31V71zM325.74 76.34a49.35 49.35 0 0 0-10-.31c-.16 0-.08.11.09.12 3.33 0 5.95 0 9.91.31.04 0 .07-.11 0-.12z"/></g></svg>